<?xml version="1.0" encoding="UTF-8"?>
<svg xmlns="http://www.w3.org/2000/svg" width="256" height="209" viewBox="0 0 131 107" role="img" aria-label="Sturgeon fish">
  <g fill="#4A5B54" fill-rule="evenodd">
    <path d="M 29.00 85.50 L 23.00 79.50 L 6.50 79.00 L 25.50 67.00 L 18.00 55.50 L 34.00 57.50 L 49.00 41.50 L 73.00 30.50 L 95.00 28.50 L 115.00 30.50 L 125.50 34.00 L 90.00 52.50 L 53.00 59.50 L 34.00 67.50 L 25.50 75.00 L 30.50 77.00 L 29.00 85.50 Z"/><path d="M 108.00 68.50 L 102.00 67.50 L 94.50 61.00 L 105.00 56.50 L 108.00 68.50 Z"/><path d="M 67.00 76.50 L 64.50 73.00 L 64.50 67.00 L 77.00 63.50 L 67.00 76.50 Z"/><path d="M 44.00 79.50 L 40.50 74.00 L 50.00 71.50 L 44.00 79.50 Z"/>
  </g>
  <g fill="#A4B4AA" fill-rule="evenodd">
    <path d="M 32.00 76.50 L 25.50 75.00 L 28.00 72.50 L 30.00 73.50 L 34.00 67.50 L 40.00 68.50 L 51.00 63.50 L 53.00 64.50 L 55.50 63.00 L 53.00 59.50 L 59.00 62.50 L 59.50 60.00 L 57.00 58.50 L 66.00 58.50 L 66.00 61.50 L 69.50 59.00 L 68.00 56.50 L 80.00 56.50 L 80.00 54.50 L 84.00 53.50 L 89.00 55.50 L 87.00 52.50 L 91.00 53.50 L 93.00 50.50 L 97.00 52.50 L 100.00 47.50 L 104.00 48.50 L 107.00 44.50 L 114.00 43.50 L 117.00 38.50 L 119.00 39.50 L 119.00 37.50 L 124.50 35.00 L 122.50 42.00 L 106.50 55.00 L 106.00 59.50 L 104.00 56.50 L 94.00 62.50 L 77.00 66.50 L 77.00 63.50 L 73.00 63.50 L 65.00 66.50 L 64.00 72.50 L 63.50 69.00 L 61.00 68.50 L 32.00 76.50 Z"/>
  </g>
  <circle cx="113.00" cy="34.00" r="1.96" fill="#F4F7F6"/>
</svg>
